<?xml version="1.0" standalone="no"?>
<!DOCTYPE svg PUBLIC "-//W3C//DTD SVG 20010904//EN"
 "http://www.w3.org/TR/2001/REC-SVG-20010904/DTD/svg10.dtd">
<svg version="1.0" xmlns="http://www.w3.org/2000/svg"
 width="740.000000pt" height="512.000000pt" viewBox="0 0 740.000000 512.000000"
 preserveAspectRatio="xMidYMid meet">

<g transform="translate(0.000000,512.000000) scale(0.100000,-0.100000)"
fill="currentColor" stroke="none">
<path d="M3474 3709 c-131 -83 -378 -239 -549 -347 -170 -107 -391 -247 -490
-310 -99 -63 -202 -125 -230 -138 -59 -28 -132 -31 -177 -8 -30 15 -31 15 -57
-11 -26 -26 -26 -26 -6 -42 64 -49 166 -57 255 -19 43 17 1038 637 1433 892
l67 44 133 -82 c72 -45 193 -118 268 -164 l136 -82 82 -3 c44 -2 81 -3 81 -2
0 1 -33 21 -72 45 -40 25 -161 98 -268 163 -107 65 -230 140 -272 167 -43 26
-82 48 -86 48 -5 0 -117 -68 -248 -151z"/>
<path d="M3717 3483 c-10 -10 -8 -23 4 -23 5 0 7 5 3 11 -4 7 -1 10 7 7 8 -3
13 -10 12 -15 -1 -5 5 -10 13 -10 11 0 11 4 -3 19 -17 19 -26 22 -36 11z"/>
<path d="M3775 3440 c-3 -6 1 -7 9 -4 10 4 16 1 16 -9 0 -8 6 -18 13 -20 7 -3
4 -6 -7 -6 -12 -1 -16 -6 -12 -17 5 -12 1 -14 -16 -8 -21 6 -22 5 -8 -11 11
-14 12 -19 3 -22 -15 -5 -18 -43 -3 -43 5 0 9 -11 8 -24 -2 -16 -7 -22 -17
-18 -9 3 -12 1 -7 -6 4 -7 -5 -23 -21 -38 -17 -15 -7 -10 25 11 28 20 52 39
52 42 0 2 -5 1 -12 -3 -7 -4 -8 -3 -4 5 4 6 11 9 16 6 12 -8 71 45 63 57 -3 6
-1 8 4 5 6 -4 16 -1 22 6 12 15 -1 29 -71 80 -41 30 -44 31 -53 17z m115 -80
c0 -6 -9 -2 -20 7 -11 10 -20 19 -20 21 0 1 9 -2 20 -8 11 -6 20 -15 20 -20z
m-90 -50 c0 -5 -2 -10 -4 -10 -3 0 -8 5 -11 10 -3 6 -1 10 4 10 6 0 11 -4 11
-10z"/>
<path d="M3760 3405 c0 -9 6 -12 15 -9 8 4 15 10 15 15 0 5 -7 9 -15 9 -8 0
-15 -7 -15 -15z"/>
<path d="M4120 3363 c-89 -15 -138 -45 -271 -169 -52 -48 -118 -105 -148 -128
l-54 -41 -111 -5 c-109 -5 -111 -5 -120 -32 -13 -36 30 -169 84 -260 77 -130
216 -249 340 -294 48 -17 56 -24 77 -71 68 -149 24 -333 -116 -473 -50 -52
-80 -73 -124 -89 -72 -26 -150 -27 -197 -2 -43 23 -89 85 -96 132 -6 34 -4 36
53 71 118 73 203 194 203 290 0 68 -36 158 -110 273 -35 55 -79 129 -97 164
-30 57 -82 209 -98 284 -6 28 -7 27 -47 -35 -94 -147 -132 -176 -260 -198 -83
-15 -124 -4 -311 80 -72 33 -132 60 -132 60 -1 0 5 -33 12 -72 7 -40 16 -145
19 -233 6 -146 10 -168 39 -250 l33 -90 7 78 c4 43 6 157 3 253 -2 96 -3 174
-2 174 1 0 32 -13 69 -30 37 -16 91 -37 121 -46 29 -8 56 -20 59 -25 4 -5 11
-9 16 -9 6 0 7 5 3 12 -4 6 -3 8 3 5 8 -5 86 4 143 16 36 7 128 58 157 86 24
23 32 27 37 16 3 -8 2 -22 -1 -32 -4 -10 -2 -14 5 -9 16 10 27 -35 11 -46 -11
-8 -11 -9 1 -5 17 4 42 -37 34 -57 -3 -8 -1 -17 5 -21 7 -4 9 1 5 12 -5 15 -4
16 5 3 6 -8 8 -24 5 -35 -4 -15 -3 -17 4 -6 8 11 13 7 26 -18 16 -29 15 -31
-1 -32 -10 0 -4 -5 14 -10 17 -5 41 -22 52 -38 39 -55 91 -175 91 -211 -1
-122 -143 -248 -323 -287 -61 -13 -86 -13 -166 -3 -96 13 -110 10 -111 -27 0
-16 28 -43 45 -43 7 0 50 -29 95 -65 108 -86 202 -139 232 -130 16 4 19 3 10
-3 -11 -7 -10 -10 3 -16 25 -9 43 -7 26 3 -9 6 -5 9 13 9 15 0 29 -4 32 -9 3
-5 -2 -6 -10 -3 -9 4 -16 1 -16 -6 0 -8 11 -11 29 -8 17 2 28 1 25 -4 -9 -15
180 -9 237 8 108 32 215 125 278 243 22 41 44 66 80 89 91 59 149 158 178 299
8 43 19 82 24 88 14 14 11 41 -6 55 -11 9 -28 9 -78 -4 -89 -22 -153 -20 -245
9 -78 25 -180 83 -216 123 -18 21 -17 21 18 53 20 17 39 42 42 55 3 13 8 24
10 24 1 0 26 -25 55 -55 140 -148 280 -126 401 64 33 52 35 71 9 71 -11 0 -23
-12 -31 -30 -7 -16 -38 -58 -69 -92 -56 -60 -58 -62 -117 -66 -53 -3 -64 0
-105 27 -40 27 -119 113 -119 130 0 3 20 35 45 70 68 97 62 111 -47 111 l-61
0 40 33 c22 17 89 77 149 131 60 55 127 107 149 117 66 29 147 32 355 14 l195
-17 68 -66 c211 -206 387 -457 387 -552 0 -54 -52 -100 -113 -100 -102 0 -242
146 -379 395 -39 72 -47 80 -73 80 -23 0 -31 -5 -33 -22 -5 -37 80 -192 180
-324 47 -63 53 -77 95 -240 25 -96 47 -184 50 -196 9 -37 19 -27 38 38 19 61
19 63 -2 143 -12 44 -20 82 -18 84 2 2 21 -6 44 -17 22 -12 49 -21 59 -21 31
0 32 -9 5 -78 -47 -126 -151 -448 -186 -577 -52 -188 -69 -279 -71 -372 -1
-69 2 -86 20 -110 12 -15 32 -29 46 -31 24 -3 24 -2 18 55 -15 134 32 356 159
738 116 352 127 378 171 414 57 45 73 82 68 152 -9 122 -136 313 -373 562
l-120 126 -212 15 c-207 16 -273 17 -323 9z m-418 -500 l39 -72 -25 -49 c-42
-84 -76 -81 -134 11 -38 62 -82 156 -82 177 0 7 27 10 82 8 l82 -3 38 -72z"/>
<path d="M4210 3148 c-24 -40 -27 -106 -5 -115 35 -13 84 72 71 123 -9 35 -42
31 -66 -8z"/>
<path d="M3941 3144 c-23 -29 -28 -69 -9 -80 16 -10 48 33 48 67 0 39 -15 44
-39 13z"/>
<path d="M5005 3065 c94 -143 92 -141 195 -193 54 -28 119 -54 144 -57 56 -9
133 9 170 38 l27 22 -25 24 c-25 23 -25 23 -71 5 -72 -27 -129 -11 -279 79
-67 41 -136 83 -152 93 l-29 19 20 -30z"/>
<path d="M2367 2794 c-27 -15 -27 -15 -11 -52 198 -464 337 -840 404 -1092 35
-129 50 -306 32 -359 -9 -26 -8 -31 4 -31 54 0 84 54 84 148 0 178 -94 489
-308 1022 -132 327 -155 380 -166 380 -6 -1 -23 -8 -39 -16z"/>
<path d="M3240 2746 c0 -3 9 -10 20 -16 11 -6 20 -8 20 -6 0 3 -9 10 -20 16
-11 6 -20 8 -20 6z"/>
<path d="M2980 2666 c0 -2 8 -10 18 -17 15 -13 16 -12 3 4 -13 16 -21 21 -21
13z"/>
<path d="M3023 2645 c0 -8 20 -21 44 -29 24 -8 41 -11 38 -5 -4 5 -12 9 -19 9
-7 0 -24 9 -38 19 -19 15 -25 16 -25 6z"/>
<path d="M3128 2593 c6 -2 18 -2 25 0 6 3 1 5 -13 5 -14 0 -19 -2 -12 -5z"/>
<path d="M3185 2590 c-5 -8 84 -25 91 -17 2 2 -16 8 -41 14 -25 6 -48 7 -50 3z"/>
<path d="M3313 2563 c9 -2 25 -2 35 0 9 3 1 5 -18 5 -19 0 -27 -2 -17 -5z"/>
<path d="M3324 2506 c-10 -25 0 -61 18 -64 19 -4 32 29 23 58 -7 23 -33 27
-41 6z"/>
<path d="M3050 2442 c0 -33 32 -67 55 -59 33 13 2 87 -36 87 -14 0 -19 -7 -19
-28z"/>
<path d="M3256 2338 c-22 -5 -42 -11 -45 -13 -2 -3 8 -19 24 -35 25 -26 27
-33 17 -55 -26 -56 -130 -69 -178 -24 -19 18 -24 19 -24 7 0 -21 17 -34 66
-48 52 -15 99 -2 139 40 26 27 29 28 51 14 15 -11 33 -14 53 -9 34 7 85 61 75
77 -4 6 -12 0 -20 -14 -18 -35 -67 -54 -99 -40 -27 13 -30 27 -15 68 14 36 4
43 -44 32z"/>
<path d="M3810 2232 c0 -6 6 -12 13 -15 9 -3 9 -7 -2 -20 -12 -15 -11 -17 5
-17 12 0 15 -3 7 -8 -6 -4 -11 -25 -11 -47 1 -22 -2 -56 -5 -75 -6 -34 -6 -34
8 -10 7 14 11 28 9 32 -3 5 -1 8 4 8 10 0 32 67 32 98 0 12 -13 30 -30 42 -16
12 -30 17 -30 12z"/>
<path d="M3779 1993 c-13 -16 -12 -17 4 -4 16 13 21 21 13 21 -2 0 -10 -8 -17
-17z"/>
<path d="M3595 1584 c-250 -26 -437 -79 -532 -151 -48 -35 -40 -44 15 -17 197
97 1227 97 1425 0 51 -25 60 -21 25 12 -56 52 -243 115 -419 142 -76 11 -442
21 -514 14z"/>
</g>
</svg>
