<?xml version="1.0" standalone="no"?>
<!DOCTYPE svg PUBLIC "-//W3C//DTD SVG 20010904//EN"
 "http://www.w3.org/TR/2001/REC-SVG-20010904/DTD/svg10.dtd">
<svg version="1.0" xmlns="http://www.w3.org/2000/svg"
 width="626.000000pt" height="626.000000pt" viewBox="0 0 626.000000 626.000000"
 preserveAspectRatio="xMidYMid meet">

<g transform="translate(0.000000,626.000000) scale(0.100000,-0.100000)"
fill="currentColor" stroke="none">
<path d="M3758 4599 c-17 -9 -18 -36 -18 -332 0 -268 -3 -330 -16 -372 -23
-71 -23 -224 0 -299 31 -105 74 -177 150 -251 137 -135 312 -188 497 -150 212
43 382 202 435 406 21 80 21 205 0 285 -13 51 -16 121 -16 383 0 306 -1 321
-19 331 -27 14 -989 13 -1013 -1z m962 -334 l0 -265 -455 0 -455 0 0 265 0
265 455 0 455 0 0 -265z m10 -377 c6 -18 14 -69 17 -113 12 -177 -72 -344
-223 -441 -154 -99 -363 -100 -516 -2 -102 64 -192 189 -217 299 -15 65 -13
178 4 237 l16 52 453 0 454 0 12 -32z"/>
<path d="M4177 4464 c-4 -4 -7 -27 -7 -51 0 -41 -1 -43 -29 -43 -16 0 -41 -4
-55 -10 -25 -9 -26 -13 -26 -88 0 -47 5 -83 12 -90 7 -7 31 -12 55 -12 l43 0
0 -43 c0 -24 5 -48 12 -55 7 -7 41 -12 83 -12 42 0 76 5 83 12 7 7 12 31 12
55 l0 43 43 0 c24 0 48 5 55 12 7 7 12 43 12 90 0 75 -1 79 -26 88 -14 6 -38
10 -54 10 -27 0 -29 3 -32 48 l-3 47 -85 3 c-47 1 -89 0 -93 -4z m113 -113 c0
-54 8 -61 66 -61 29 0 34 -3 34 -24 0 -23 -5 -25 -47 -28 l-48 -3 -3 -47 c-3
-43 -6 -48 -27 -48 -21 0 -24 5 -27 48 l-3 47 -50 5 c-42 4 -50 8 -50 25 0 16
8 21 40 23 54 5 65 17 65 68 0 40 2 44 25 44 23 0 25 -3 25 -49z"/>
<path d="M2557 3886 c-111 -40 -173 -115 -283 -343 -65 -136 -87 -173 -102
-173 -30 0 -46 -24 -32 -49 9 -18 6 -29 -21 -69 -58 -85 -190 -206 -374 -343
-293 -218 -388 -323 -437 -482 -17 -58 -20 -85 -15 -180 3 -62 8 -122 12 -133
17 -55 -133 -152 -250 -162 -40 -3 -65 -1 -69 7 -9 15 -87 14 -107 -2 -65 -50
-46 -137 38 -178 39 -19 64 -24 133 -24 117 1 232 41 341 121 38 28 49 32 58
20 6 -7 37 -25 69 -39 37 -17 64 -36 73 -53 26 -49 56 -54 331 -54 230 0 256
2 284 19 60 37 69 124 19 171 -20 19 -40 25 -90 28 l-65 4 35 41 c107 124 100
319 -16 438 -61 63 -125 92 -204 93 -60 1 -60 1 -60 -28 0 -28 3 -30 64 -42
76 -16 130 -49 171 -106 95 -131 43 -308 -110 -377 -25 -11 -66 -21 -91 -21
-52 0 -74 -17 -64 -50 6 -19 14 -20 184 -20 159 0 180 -2 194 -18 14 -15 15
-22 4 -35 -11 -16 -37 -17 -267 -15 l-254 3 -6 24 c-6 26 -7 26 -89 62 -30 13
-70 36 -89 52 -19 15 -39 27 -44 27 -6 0 -31 -19 -57 -43 -50 -45 -136 -91
-210 -114 -110 -33 -288 4 -242 50 9 9 16 8 31 -1 75 -47 262 1 371 96 24 21
52 41 62 45 22 8 22 34 0 83 -25 58 -24 242 1 309 51 134 129 217 379 403 225
168 308 241 387 341 35 44 65 81 66 81 2 0 42 -20 91 -44 111 -57 248 -102
377 -125 l101 -17 -3 -75 c-8 -204 -36 -289 -142 -421 -45 -55 -86 -111 -91
-125 -5 -13 -14 -100 -20 -192 -11 -172 -2 -308 22 -338 6 -7 29 -13 50 -13
30 0 39 -4 45 -22 9 -30 -19 -48 -76 -48 -78 0 -83 9 -129 203 -23 94 -62 269
-89 387 l-47 215 -30 0 c-23 0 -31 -5 -33 -22 -3 -22 94 -477 144 -677 39
-154 62 -176 190 -176 73 0 77 1 110 34 27 27 34 42 34 74 0 48 -35 96 -77
107 -15 3 -31 12 -35 18 -11 16 -9 222 2 335 l9 93 75 93 c115 142 148 231
162 441 5 79 11 104 25 118 23 22 24 40 4 57 -17 14 -21 94 -6 133 9 22 19 26
93 36 46 6 95 14 109 17 89 17 187 232 149 324 -17 40 -27 45 -144 65 -86 14
-102 20 -120 43 -55 74 -112 120 -165 136 -66 19 -192 20 -244 2z m241 -81
c27 -11 54 -33 76 -64 61 -83 74 -91 177 -106 52 -8 97 -15 102 -15 4 0 7 -20
7 -43 0 -43 -46 -153 -73 -175 -7 -6 -60 -18 -117 -27 -58 -10 -113 -21 -123
-27 -26 -14 -45 -64 -53 -142 l-7 -66 -41 6 c-141 20 -336 84 -442 145 l-52
30 57 122 c134 282 172 333 280 374 45 17 151 11 209 -12z"/>
<path d="M2604 3725 c-17 -12 -18 -17 -5 -47 21 -52 47 -148 55 -202 l8 -49
-49 28 c-59 34 -113 75 -113 84 0 4 16 26 36 49 42 50 43 85 3 90 -21 2 -33
-5 -56 -35 -40 -51 -53 -77 -53 -107 0 -41 10 -55 75 -101 109 -78 187 -103
216 -69 18 22 14 108 -11 210 -31 133 -64 180 -106 149z"/>
<path d="M2760 3702 c-46 -37 9 -90 66 -63 34 15 33 58 -2 71 -34 13 -38 13
-64 -8z"/>
<path d="M6052 3535 c0 -16 2 -22 5 -12 2 9 2 23 0 30 -3 6 -5 -1 -5 -18z"/>
<path d="M4791 3173 c-7 -13 -2 -29 17 -63 24 -39 27 -56 27 -130 0 -47 -6
-114 -14 -148 l-14 -64 -31 7 c-162 39 -347 -112 -432 -352 -43 -122 -27 -215
43 -260 15 -9 43 -30 61 -45 57 -49 125 -33 125 29 0 38 -36 63 -88 63 -36 0
-48 5 -69 31 -31 36 -32 67 -7 140 58 168 175 306 277 325 52 10 186 -39 223
-82 35 -40 61 -118 61 -186 0 -114 -59 -302 -104 -334 -31 -21 -74 -17 -108
11 -74 63 -174 -8 -104 -74 23 -21 31 -23 130 -19 104 3 105 3 140 37 91 88
145 360 101 509 -19 64 -70 132 -116 154 l-35 18 17 67 c20 77 24 228 9 285
-21 75 -85 123 -109 81z"/>
<path d="M3436 3103 c-74 -110 -119 -241 -152 -448 -18 -113 -31 -651 -19
-778 6 -64 10 -77 27 -83 41 -13 43 1 44 359 0 261 5 369 17 457 31 215 72
341 149 456 41 61 48 77 38 89 -27 32 -56 18 -104 -52z"/>
<path d="M3676 3138 c-55 -73 -59 -222 -11 -396 l26 -93 -26 -30 c-30 -37 -39
-69 -32 -116 9 -52 33 -82 84 -105 165 -73 284 159 130 252 -18 11 -43 20 -57
20 -24 0 -28 7 -48 75 -50 169 -50 288 -1 356 45 63 -18 98 -65 37z m127 -549
c29 -16 37 -28 37 -63 0 -81 -106 -91 -133 -13 -9 23 10 63 37 75 28 14 33 14
59 1z"/>
<path d="M4992 3158 c-18 -18 -15 -25 23 -75 136 -179 196 -528 179 -1058 -6
-186 -5 -212 9 -223 9 -8 25 -11 35 -8 25 8 32 94 32 381 0 407 -35 638 -124
830 -63 134 -118 189 -154 153z"/>
<path d="M4127 3013 c-4 -4 -5 -50 -1 -103 6 -88 -6 -210 -25 -263 -5 -14 -32
22 -110 148 -95 152 -106 166 -130 163 -52 -6 -39 -36 138 -319 94 -150 177
-277 185 -281 23 -13 46 2 46 29 0 14 -16 51 -36 83 l-36 59 21 118 c12 65 21
121 21 126 0 4 22 7 48 7 l48 0 15 -47 c10 -35 20 -49 35 -51 36 -5 48 21 34
77 -6 27 -10 95 -8 152 l3 104 -121 3 c-66 1 -123 -1 -127 -5z m171 -110 l-3
-48 -45 0 -45 0 -3 48 -3 47 51 0 51 0 -3 -47z"/>
<path d="M6051 2724 c0 -11 3 -14 6 -6 3 7 2 16 -1 19 -3 4 -6 -2 -5 -13z"/>
<path d="M5901 2624 c0 -11 3 -14 6 -6 3 7 2 16 -1 19 -3 4 -6 -2 -5 -13z"/>
</g>
</svg>
