<?xml version="1.0" standalone="no"?>
<!DOCTYPE svg PUBLIC "-//W3C//DTD SVG 20010904//EN"
 "http://www.w3.org/TR/2001/REC-SVG-20010904/DTD/svg10.dtd">
<svg version="1.0" xmlns="http://www.w3.org/2000/svg"
 width="1024.000000pt" height="1024.000000pt" viewBox="0 0 1024.000000 1024.000000"
 preserveAspectRatio="xMidYMid meet">

<g transform="translate(0.000000,1024.000000) scale(0.100000,-0.100000)"
fill="currentColor" stroke="none">
<path d="M4841 9289 c-1265 -80 -2440 -743 -3178 -1793 -406 -578 -651 -1219
-740 -1936 -22 -182 -25 -720 -5 -905 106 -962 505 -1819 1161 -2498 547 -564
1214 -960 1961 -1161 149 -40 430 -93 595 -113 214 -25 770 -25 975 0 713 88
1363 339 1950 755 734 521 1287 1268 1568 2118 217 656 269 1388 146 2069
-153 849 -555 1617 -1168 2231 -869 868 -2041 1311 -3265 1233z m729 -244
c545 -66 1050 -231 1510 -493 316 -180 586 -387 856 -656 325 -325 542 -619
737 -998 218 -425 349 -856 413 -1363 23 -176 26 -686 6 -870 -64 -572 -236
-1095 -528 -1601 -411 -713 -1106 -1327 -1871 -1655 -903 -386 -1891 -430
-2818 -125 -594 196 -1118 521 -1576 976 -517 513 -885 1164 -1058 1871 -86
350 -106 530 -106 949 0 416 22 611 110 968 275 1119 1069 2098 2120 2613 483
236 919 352 1515 403 106 9 563 -3 690 -19z"/>
<path d="M4870 8950 c-994 -69 -1914 -507 -2593 -1237 -603 -646 -950 -1435
-1028 -2333 -13 -150 -7 -578 11 -720 82 -673 306 -1267 676 -1796 145 -208
240 -320 429 -510 332 -334 680 -584 1087 -778 377 -182 768 -296 1203 -353
200 -26 741 -26 935 0 763 102 1422 390 2015 879 677 560 1153 1365 1324 2238
71 364 87 787 46 1170 -143 1304 -946 2448 -2135 3040 -410 205 -850 334
-1305 384 -177 19 -502 27 -665 16z m305 -261 c4 -22 3 -45 -1 -49 -5 -5 -42
-10 -83 -12 l-74 -3 2 -86 c1 -47 6 -146 10 -220 5 -73 7 -137 4 -141 -2 -5
-28 -8 -57 -8 l-53 0 -6 108 c-4 59 -10 160 -13 225 l-7 119 -84 -7 -83 -7 0
51 c0 44 3 51 23 56 23 5 121 9 309 13 l106 2 7 -41z m356 12 c202 -29 253
-72 247 -202 -3 -54 -9 -73 -32 -103 -15 -21 -43 -45 -62 -53 l-34 -17 55
-104 55 -104 -62 7 c-35 4 -67 9 -71 12 -4 2 -27 44 -52 92 -24 49 -51 91 -60
95 -16 6 -74 9 -76 4 0 -2 -6 -39 -12 -83 l-12 -80 -50 3 c-28 2 -53 7 -58 11
-6 6 40 400 59 509 7 38 0 37 165 13z m-985 -56 c20 -8 33 -18 31 -22 -3 -5
-10 -27 -16 -50 -11 -41 -13 -42 -39 -32 -38 15 -143 15 -169 0 -26 -13 -32
-61 -9 -80 7 -6 51 -16 97 -22 46 -6 98 -15 115 -20 70 -22 112 -104 94 -184
-25 -112 -219 -176 -353 -117 -26 12 -47 23 -47 25 0 22 35 97 44 93 123 -53
236 -38 236 30 0 34 -34 50 -132 62 -102 13 -141 31 -168 75 -24 39 -26 116
-5 157 17 33 66 73 110 88 46 16 170 14 211 -3z m1729 -109 l31 -13 22 -293
c12 -161 21 -294 19 -296 -2 -2 -28 4 -58 14 l-54 19 -6 62 c-3 34 -10 66 -15
70 -5 5 -54 23 -108 41 l-99 33 -43 -50 -44 -50 -55 16 c-30 9 -54 19 -52 23
1 4 83 100 182 214 99 114 184 213 188 221 10 16 35 12 92 -11z m-2271 -38
c19 -44 29 -37 -129 -98 -60 -23 -111 -43 -113 -45 -3 -2 38 -115 41 -115 1 0
53 20 114 44 l112 44 17 -45 c10 -26 13 -47 8 -52 -5 -5 -54 -25 -109 -46 -55
-20 -102 -38 -104 -40 -4 -4 29 -96 38 -107 4 -4 60 13 125 37 65 25 124 45
131 45 11 0 51 -78 43 -85 -7 -7 -370 -147 -372 -143 -1 1 -40 104 -86 228
-46 124 -89 239 -96 256 l-13 32 182 70 c100 38 185 67 189 64 4 -4 14 -24 22
-44z m-503 -462 l45 -287 -44 -26 c-39 -23 -47 -25 -66 -13 -29 18 -446 340
-446 345 0 2 25 17 55 33 l54 30 157 -129 c87 -71 159 -127 161 -125 2 2 -12
84 -31 182 -19 99 -36 189 -38 202 -2 18 7 29 42 52 25 16 49 27 55 26 5 -1
30 -132 56 -290z m3458 193 c28 -18 51 -36 51 -40 0 -4 -20 -92 -45 -195 -25
-102 -45 -192 -45 -200 0 -7 75 45 166 115 l166 129 50 -31 c27 -18 49 -36 49
-40 0 -7 -201 -153 -414 -301 l-58 -40 -34 19 c-62 33 -62 24 -11 283 59 295
67 332 71 332 2 0 26 -14 54 -31z m-1447 -239 c734 -105 1385 -462 1858 -1019
669 -789 876 -1820 563 -2795 -313 -973 -1123 -1720 -2128 -1961 -463 -112
-927 -109 -1395 6 -923 228 -1683 887 -2037 1768 -138 345 -205 690 -206 1071
-1 233 12 372 53 580 90 453 297 894 596 1270 86 108 343 365 454 454 460 368
1036 596 1625 646 158 13 456 3 617 -20z m-2647 -277 c61 -76 124 -152 140
-170 l30 -32 85 69 c47 38 88 69 91 70 7 0 59 -72 59 -82 0 -3 -57 -52 -126
-109 -93 -75 -130 -100 -141 -93 -7 5 -88 99 -178 209 l-164 200 42 37 c23 21
44 37 47 37 3 0 55 -61 115 -136z m4779 -4 l135 -131 -27 -34 c-15 -19 -32
-34 -37 -34 -6 0 -29 18 -50 41 -22 22 -66 63 -98 91 l-57 50 -40 -43 -40 -44
87 -82 86 -81 -29 -35 c-16 -20 -32 -36 -37 -36 -4 -1 -46 36 -93 81 l-85 81
-45 -44 -45 -44 103 -97 103 -97 -35 -36 -36 -35 -142 131 c-78 73 -141 137
-139 142 6 18 362 386 374 387 6 0 72 -59 147 -131z m-4896 -351 c72 -71 132
-131 132 -134 0 -12 -65 -74 -76 -72 -13 3 -386 356 -393 371 -2 5 14 26 35
48 l38 39 65 -62 c36 -34 126 -120 199 -190z m5282 -79 c71 -90 130 -168 130
-174 0 -5 -17 -22 -38 -36 l-37 -27 -49 64 c-27 35 -52 64 -57 64 -4 0 -85
-61 -179 -136 -95 -75 -175 -132 -179 -127 -3 5 -19 26 -35 47 -17 21 -25 40
-20 45 5 5 68 54 139 111 72 56 146 114 165 130 l35 27 -49 64 -49 63 39 32
c21 18 43 29 47 25 4 -4 66 -82 137 -172z m-5694 4 l20 -48 -56 -31 c-59 -33
-103 -86 -98 -118 2 -11 15 -27 29 -35 29 -16 15 -22 169 75 41 26 65 34 100
34 84 0 150 -69 150 -157 0 -101 -114 -229 -231 -258 -23 -6 -27 -2 -42 37
-10 24 -17 46 -17 49 0 3 19 12 43 20 56 18 137 96 137 131 0 37 -27 61 -59
53 -14 -3 -59 -29 -100 -56 -83 -55 -106 -64 -161 -56 -101 13 -155 118 -115
222 21 56 94 132 155 162 25 13 48 23 51 23 3 0 14 -21 25 -47z m-498 -2072
c44 -31 68 -100 54 -149 -22 -72 -105 -121 -173 -102 -78 23 -114 74 -107 152
11 109 136 164 226 99z m6710 15 c52 -27 75 -62 79 -118 5 -67 -20 -111 -80
-138 -54 -25 -71 -25 -125 1 -134 65 -84 267 66 269 18 0 45 -6 60 -14z m-721
-1843 l32 -24 -45 -59 c-25 -33 -42 -64 -39 -70 3 -5 80 -67 171 -136 90 -69
164 -128 164 -132 -1 -4 -16 -25 -35 -47 l-34 -39 -163 123 c-90 68 -168 128
-174 133 -9 7 -39 -25 -111 -121 -3 -4 -83 49 -83 56 0 15 266 351 274 346 6
-3 25 -17 43 -30z m-5267 -111 c66 -35 118 -124 144 -244 6 -29 3 -31 -65 -42
-36 -6 -37 -6 -43 31 -12 66 -54 142 -83 149 -63 16 -76 -32 -39 -140 15 -41
26 -97 26 -124 0 -43 -5 -56 -33 -85 -41 -44 -101 -62 -155 -48 -91 25 -176
146 -188 269 l-7 62 34 0 c19 0 43 3 55 6 19 5 22 1 26 -54 9 -89 58 -172 103
-172 52 0 57 45 19 146 -47 124 -35 186 46 242 41 28 111 29 160 4z m4944
-294 l26 -33 -100 -100 -100 -101 38 -37 c21 -20 42 -37 48 -37 5 0 45 36 89
80 44 44 83 80 87 80 5 0 21 -15 38 -32 l29 -33 -87 -88 -87 -87 42 -42 42
-41 78 70 c43 39 87 80 97 92 27 29 41 26 72 -15 20 -26 24 -38 15 -43 -6 -4
-69 -65 -140 -134 -70 -70 -130 -127 -133 -127 -3 0 -89 88 -192 195 l-187
194 138 135 c76 75 143 135 150 136 6 0 23 -15 37 -32z m-4611 -181 c-27 -27
-115 -112 -196 -189 l-148 -141 -40 39 -39 38 192 193 193 193 42 -42 43 -42
-47 -49z m223 -108 c22 -17 40 -32 42 -34 2 -2 -57 -78 -132 -169 -75 -91
-136 -170 -136 -174 0 -4 41 -39 90 -77 50 -38 90 -72 90 -75 0 -3 -15 -22
-33 -42 l-32 -37 -135 105 c-74 58 -136 109 -138 113 -2 6 43 63 281 359 28
34 54 62 57 62 4 0 25 -14 46 -31z m4065 -295 c32 -148 59 -276 59 -284 0 -8
-19 -27 -41 -41 l-41 -26 -244 160 c-134 88 -241 163 -239 168 3 4 27 21 53
37 l49 30 154 -110 c85 -60 161 -113 170 -118 12 -7 3 38 -36 193 l-52 202 46
32 c25 17 50 31 55 29 5 -1 35 -123 67 -272z m-3791 85 c27 -17 50 -36 50 -42
0 -7 -14 -100 -30 -206 -17 -107 -30 -196 -30 -198 0 -2 57 47 128 108 70 61
141 123 159 136 l31 24 52 -26 c28 -14 50 -30 48 -35 -2 -4 -102 -89 -223
-188 l-220 -179 -48 24 -49 24 6 47 c3 26 17 153 32 282 26 238 29 260 39 260
2 0 27 -14 55 -31z m693 -335 c89 -31 165 -60 169 -63 10 -9 -13 -82 -27 -87
-7 -3 -63 13 -126 36 -63 22 -119 40 -126 40 -15 0 -48 -99 -37 -109 5 -5 52
-23 104 -41 52 -18 99 -36 103 -40 12 -10 -14 -90 -28 -90 -7 0 -57 16 -110
35 -54 20 -103 34 -109 32 -6 -3 -19 -28 -28 -55 l-16 -51 52 -20 c28 -10 86
-31 129 -46 42 -15 77 -33 77 -40 0 -11 -20 -76 -25 -83 -3 -3 -347 116 -364
127 -11 7 2 54 69 242 45 129 87 245 91 258 6 15 15 21 24 17 8 -3 88 -31 178
-62z m2306 -211 c105 -119 191 -219 191 -223 0 -3 -25 -14 -56 -24 l-56 -18
-44 50 -44 50 -104 -37 -104 -36 -6 -67 -7 -67 -50 -16 c-28 -10 -53 -14 -56
-11 -5 4 35 578 40 582 12 7 85 33 93 33 7 1 98 -97 203 -216z m-1754 63 c27
-13 63 -35 79 -48 l29 -24 -28 -42 c-15 -23 -30 -42 -32 -42 -2 0 -23 13 -46
28 -80 54 -148 67 -170 31 -22 -35 0 -64 87 -113 96 -53 132 -90 142 -142 8
-44 -18 -116 -52 -143 -85 -67 -240 -44 -349 51 l-39 35 33 42 33 41 34 -30
c49 -43 110 -71 154 -72 49 0 60 7 60 41 0 34 -17 50 -96 89 -116 58 -153 110
-139 193 9 50 63 115 109 129 46 14 134 3 191 -24z m1067 4 c81 -23 128 -89
128 -180 0 -58 -20 -105 -57 -137 l-26 -21 71 -79 c40 -43 72 -81 72 -84 0 -4
-21 -10 -47 -13 -27 -4 -55 -9 -63 -12 -10 -2 -38 25 -80 76 l-64 81 -46 -7
c-25 -4 -46 -7 -48 -9 -1 -1 3 -39 9 -84 6 -45 9 -84 7 -86 -2 -2 -28 -5 -58
-7 l-54 -3 -38 265 c-20 145 -36 265 -35 266 2 2 253 41 277 43 8 0 32 -4 52
-9z m-514 -37 l82 -6 0 -48 0 -49 -79 0 -78 0 -7 -52 c-3 -29 -6 -128 -6 -220
l0 -168 -57 0 -58 0 3 219 4 219 -81 8 -81 7 0 48 0 49 138 0 c75 0 174 -3
220 -7z"/>
<path d="M5465 8551 c-4 -31 -7 -69 -8 -86 l-2 -30 74 -9 c65 -7 76 -6 99 11
50 38 47 121 -6 142 -15 5 -55 14 -89 19 l-62 9 -6 -56z"/>
<path d="M6142 8335 c-41 -49 -58 -77 -50 -80 7 -3 39 -14 71 -24 l57 -20 -6
97 c-4 53 -7 98 -8 99 -1 1 -30 -31 -64 -72z"/>
<path d="M4777 7895 c-808 -102 -1519 -528 -1994 -1195 -254 -358 -413 -751
-490 -1215 -23 -137 -26 -637 -5 -775 80 -525 245 -929 547 -1335 410 -552
1041 -949 1720 -1084 248 -49 614 -67 856 -41 798 85 1521 493 1993 1125 289
387 463 800 541 1290 25 154 31 556 11 727 -99 855 -586 1621 -1332 2093 -300
190 -706 340 -1084 401 -143 22 -612 28 -763 9z m747 -105 c324 -49 645 -158
921 -312 243 -135 418 -269 625 -477 311 -312 521 -645 661 -1051 193 -557
195 -1160 8 -1729 -319 -966 -1152 -1678 -2166 -1851 -973 -167 -1990 221
-2605 993 -247 310 -431 680 -522 1047 -113 456 -111 911 5 1359 118 452 386
910 735 1253 469 461 1058 732 1724 792 118 10 480 -4 614 -24z"/>
<path d="M5039 7116 c-86 -31 -145 -104 -156 -194 -8 -68 17 -135 72 -199 45
-51 45 -52 45 -125 0 -123 -4 -118 115 -118 l102 0 7 61 c3 34 6 77 6 96 0 27
10 46 45 85 60 67 83 140 67 217 -30 143 -170 225 -303 177z"/>
<path d="M3148 6662 c-15 -3 -28 -49 -28 -103 0 -26 3 -27 73 -34 98 -10 212
-40 263 -70 62 -36 117 -105 168 -208 57 -117 550 -1249 1051 -2414 129 -298
251 -579 272 -624 l39 -83 23 32 23 33 -42 45 c-94 102 -120 230 -68 334 l27
53 -44 51 c-117 138 -139 281 -64 414 l31 55 -43 41 c-82 80 -139 197 -139
286 0 56 32 147 71 203 22 32 39 60 37 62 -1 2 -27 21 -57 43 -65 49 -102 93
-138 164 -26 48 -28 63 -28 163 0 104 2 114 32 176 l33 66 -32 79 c-24 60 -46
95 -94 145 -94 101 -137 213 -134 346 2 48 -7 82 -54 205 -63 164 -82 240 -72
291 12 66 78 102 202 112 131 10 124 6 124 78 l0 62 -708 0 c-390 0 -715 -1
-724 -3z"/>
<path d="M5906 6637 c-3 -16 -6 -46 -6 -67 l0 -37 78 -6 c132 -11 197 -40 236
-107 25 -43 26 -150 2 -252 -43 -185 -77 -274 -743 -1968 l-65 -165 13 -52
c26 -112 -6 -221 -96 -320 l-46 -52 28 -53 c55 -106 32 -236 -62 -345 l-35
-42 25 -37 25 -36 30 66 c16 37 89 214 161 394 120 298 575 1407 885 2157 69
165 158 368 199 450 130 263 213 328 478 370 l37 6 0 62 0 62 -569 0 -569 1
-6 -29z"/>
<path d="M4942 6419 c-83 -14 -201 -57 -262 -94 -196 -119 -293 -354 -231
-554 58 -187 191 -285 531 -391 91 -29 192 -65 226 -80 138 -62 205 -171 160
-259 -28 -53 -94 -99 -267 -184 -202 -99 -279 -160 -326 -255 -23 -47 -28 -70
-28 -132 1 -94 31 -166 103 -240 l51 -52 60 53 c34 29 61 59 61 65 0 6 -11 19
-24 27 -13 9 -34 37 -46 62 -29 59 -21 103 27 156 42 47 71 63 247 135 209 87
308 164 365 284 22 47 26 69 26 150 0 87 -3 101 -32 163 -39 82 -116 161 -207
212 -35 19 -151 64 -258 99 -223 72 -312 113 -369 168 -66 64 -84 132 -57 219
27 92 141 170 276 191 105 17 136 4 241 -96 68 -64 98 -85 140 -99 68 -22 206
-37 354 -40 100 -2 117 0 136 17 20 18 22 18 60 1 50 -22 74 -48 100 -105 l20
-45 0 33 c1 31 14 42 26 22 3 -5 11 -10 17 -10 6 0 3 11 -6 25 -22 33 -20 39
12 52 26 10 25 11 -20 12 -57 1 -162 57 -151 81 23 57 19 64 -81 144 -52 42
-102 88 -110 103 -35 68 -123 119 -256 148 -88 20 -425 29 -508 14z m633 -171
c29 -13 43 -53 28 -77 -16 -26 -68 -26 -87 1 -22 31 -20 54 6 72 27 19 21 19
53 4z"/>
<path d="M5020 5921 c0 -109 3 -212 6 -229 6 -28 13 -32 87 -56 45 -14 84 -23
87 -20 3 3 6 90 8 192 l3 187 -48 51 c-54 58 -80 74 -117 74 l-26 0 0 -199z"/>
<path d="M5040 5107 c0 -112 3 -206 6 -209 3 -3 36 8 75 25 l69 31 0 152 0
153 -52 19 c-29 11 -63 23 -75 26 l-23 7 0 -204z"/>
<path d="M5340 4674 c-14 -7 -46 -23 -72 -34 -54 -23 -58 -37 -26 -83 14 -20
22 -46 22 -77 1 -71 -33 -114 -170 -211 -190 -136 -250 -218 -248 -344 0 -83
27 -144 96 -219 l43 -47 29 37 30 37 -18 46 c-63 162 -50 189 157 325 217 143
281 229 281 376 0 66 -4 82 -34 140 -37 69 -50 77 -90 54z"/>
<path d="M5108 4574 l-48 -24 0 -121 0 -121 28 17 c15 10 42 29 60 42 l32 24
0 105 c0 77 -3 104 -12 104 -7 -1 -34 -12 -60 -26z"/>
<path d="M5240 4084 c-25 -20 -46 -39 -48 -43 -1 -5 6 -32 18 -60 42 -107 20
-162 -116 -287 -121 -111 -149 -157 -149 -244 1 -70 31 -145 74 -184 l21 -19
-6 84 c-9 110 -2 123 128 240 184 166 218 218 218 339 0 54 -6 88 -21 120 -19
43 -56 91 -68 89 -3 0 -26 -16 -51 -35z"/>
<path d="M5113 4001 l-43 -31 0 -117 0 -118 45 46 46 45 -3 103 -3 103 -42
-31z"/>
<path d="M5106 3460 c-25 -31 -28 -39 -22 -85 3 -27 6 -78 6 -112 0 -35 4 -63
8 -63 21 0 43 116 40 204 l-3 90 -29 -34z"/>
<path d="M5106 3031 c-14 -16 -16 -33 -10 -132 7 -123 19 -168 28 -109 11 72
17 260 8 260 -5 0 -16 -8 -26 -19z"/>
<path d="M6187 1980 c-9 -24 -15 -170 -7 -170 3 0 34 9 68 21 l62 21 -19 26
c-51 70 -99 117 -104 102z"/>
<path d="M5553 1891 c-24 -4 -44 -9 -47 -12 -5 -6 18 -146 26 -154 3 -4 37 -2
75 4 85 13 118 43 109 100 -10 65 -50 80 -163 62z"/>
</g>
</svg>
