<?xml version="1.0" standalone="no"?>
<!DOCTYPE svg PUBLIC "-//W3C//DTD SVG 20010904//EN"
 "http://www.w3.org/TR/2001/REC-SVG-20010904/DTD/svg10.dtd">
<svg version="1.0" xmlns="http://www.w3.org/2000/svg"
 width="500.000000pt" height="500.000000pt" viewBox="0 0 500.000000 500.000000"
 preserveAspectRatio="xMidYMid meet">

<g transform="translate(0.000000,500.000000) scale(0.100000,-0.100000)"
fill="currentColor" stroke="none">
<path d="M2236 4985 c-330 -41 -564 -110 -842 -246 -649 -317 -1136 -918
-1315 -1624 -144 -567 -87 -1146 167 -1693 209 -450 597 -859 1053 -1111 384
-211 862 -326 1281 -308 668 29 1275 302 1728 776 354 371 589 856 662 1366
40 279 37 490 -11 780 -115 702 -544 1332 -1164 1710 -290 177 -577 280 -930
336 -178 27 -472 34 -629 14z m689 -169 c513 -103 917 -322 1270 -687 315
-325 526 -729 614 -1179 31 -156 41 -267 41 -450 0 -246 -26 -431 -92 -660
-218 -758 -840 -1380 -1598 -1598 -229 -66 -414 -92 -658 -92 -370 0 -694 73
-1017 229 -268 130 -440 253 -656 469 -228 231 -346 404 -496 732 -45 97 -112
317 -145 473 -31 150 -32 156 -32 437 -1 236 2 302 17 385 67 362 186 659 375
940 349 517 882 873 1492 995 171 34 242 39 505 36 223 -3 264 -6 380 -30z"/>
<path d="M2255 4743 c-230 -24 -496 -101 -720 -208 -230 -109 -410 -232 -588
-404 -210 -203 -347 -391 -472 -646 -116 -237 -185 -473 -216 -738 -17 -150
-7 -494 20 -637 85 -457 290 -855 610 -1184 333 -341 752 -561 1239 -648 109
-19 162 -22 372 -23 213 0 262 3 373 23 461 83 861 285 1190 601 343 330 574
766 658 1246 26 151 36 455 20 605 -85 781 -548 1445 -1246 1790 -201 99 -380
159 -605 201 -94 18 -159 22 -355 24 -132 2 -258 1 -280 -2z m463 -63 c265
-29 507 -98 747 -215 106 -51 142 -72 270 -158 211 -142 433 -364 575 -577 24
-36 51 -76 60 -90 40 -60 121 -224 163 -331 58 -147 100 -299 129 -464 32
-185 32 -502 0 -690 -88 -519 -349 -984 -735 -1312 -51 -43 -103 -87 -117 -96
-331 -232 -601 -346 -965 -409 -186 -32 -503 -32 -690 0 -716 123 -1307 560
-1621 1200 -233 472 -286 1030 -148 1537 40 145 73 231 145 380 309 639 918
1095 1609 1204 69 11 141 22 160 24 77 8 326 6 418 -3z"/>
<path d="M2602 4449 c-12 -64 -9 -72 12 -31 19 38 43 46 107 37 l51 -7 -7 -52
c-18 -135 -56 -350 -65 -367 -7 -11 -21 -19 -37 -19 -48 0 -15 -12 69 -26 103
-17 110 -17 76 2 -22 11 -28 22 -28 47 0 48 57 388 67 398 11 11 94 -9 116
-28 9 -9 21 -30 26 -47 7 -30 8 -29 15 22 5 29 6 55 3 58 -2 2 -73 15 -158 29
-85 13 -172 27 -195 30 l-41 7 -11 -53z"/>
<path d="M2012 4451 c-55 -14 -110 -58 -142 -114 -25 -43 -30 -63 -30 -118 0
-77 12 -118 52 -176 44 -65 107 -97 187 -97 193 1 297 194 205 381 -47 98
-165 151 -272 124z m143 -63 c50 -51 85 -136 92 -225 7 -81 -21 -145 -78 -173
-100 -51 -190 5 -238 147 -35 104 -26 199 22 252 29 31 53 40 111 40 44 1 52
-3 91 -41z"/>
<path d="M1455 4212 c-88 -54 -161 -104 -163 -112 -1 -8 9 -33 23 -55 l26 -40
-6 36 c-4 30 -1 43 20 67 22 27 81 60 89 51 29 -36 206 -349 206 -365 0 -12
-7 -27 -15 -34 -9 -7 -13 -15 -11 -17 4 -4 151 80 166 94 3 3 -9 2 -26 -1 -22
-5 -36 -2 -47 8 -8 8 -61 92 -118 186 -112 188 -110 175 -32 211 42 20 64 18
96 -9 9 -8 17 -12 17 -8 0 12 -50 86 -58 85 -4 0 -79 -44 -167 -97z"/>
<path d="M3255 4301 c-113 -28 -194 -130 -203 -257 -3 -50 0 -69 21 -111 46
-89 116 -133 214 -133 104 1 181 54 231 160 67 142 -10 307 -159 339 -55 12
-61 12 -104 2z m142 -41 c81 -36 104 -123 63 -233 -28 -74 -88 -156 -130 -179
-110 -58 -230 22 -217 146 14 133 131 282 222 285 11 0 39 -8 62 -19z"/>
<path d="M3810 4028 c0 -4 5 -19 12 -32 9 -22 8 -29 -8 -47 -41 -47 -289 -250
-311 -255 -15 -4 -31 0 -43 11 -41 37 -17 -2 36 -60 45 -49 52 -54 39 -27 -19
39 -27 30 154 181 85 72 121 97 116 81 -4 -12 -42 -96 -85 -185 -92 -191 -97
-205 -77 -205 13 0 109 25 336 89 41 11 76 19 78 17 7 -7 -272 -236 -287 -236
-9 0 -21 5 -28 12 -6 6 -14 9 -17 7 -6 -7 105 -139 118 -139 6 0 2 9 -7 19
-14 15 -15 24 -7 39 6 11 78 76 161 146 150 125 180 141 209 114 23 -22 -5 23
-38 60 l-29 33 -188 -52 c-104 -28 -195 -54 -201 -56 -24 -9 -13 19 72 200 79
166 84 182 70 201 -24 36 -74 91 -75 84z"/>
<path d="M1124 3968 c-16 -18 -41 -46 -54 -62 -24 -27 -24 -28 -3 -17 38 20
55 12 137 -61 132 -119 151 -137 145 -142 -3 -3 -107 0 -232 6 l-227 12 -36
-34 c-20 -19 -40 -43 -45 -53 -9 -15 -5 -15 30 4 22 11 47 19 55 17 20 -4 288
-246 300 -270 6 -12 5 -28 -3 -45 -11 -24 -10 -25 4 -13 8 7 34 35 58 63 28
34 34 46 20 39 -12 -7 -30 -12 -40 -12 -24 0 -270 216 -259 228 3 3 116 -1
251 -8 136 -7 248 -10 251 -7 4 4 -157 153 -303 282 -34 29 -40 53 -23 86 15
27 8 24 -26 -13z"/>
<path d="M2350 3885 c-8 -2 -49 -9 -90 -15 -430 -70 -814 -357 -1015 -758 -53
-108 -101 -261 -122 -390 l-18 -113 -73 -60 c-41 -34 -76 -59 -78 -56 -3 2 5
25 16 51 52 121 -4 236 -114 236 -57 0 -93 -30 -171 -140 -74 -107 -112 -124
-160 -75 -31 30 -33 77 -5 122 23 38 52 58 100 69 l35 8 -40 7 c-22 4 -60 8
-84 8 -36 1 -42 -1 -32 -13 9 -11 7 -28 -9 -76 -25 -75 -19 -119 22 -165 50
-58 125 -58 181 0 18 19 53 63 77 98 65 97 118 120 165 72 20 -19 25 -34 25
-73 0 -69 -31 -112 -93 -132 -57 -18 -60 -30 -7 -30 48 0 51 -12 10 -42 -16
-12 -30 -25 -30 -29 0 -11 169 -283 271 -435 51 -77 149 -213 218 -304 69 -91
139 -184 155 -207 33 -45 45 -50 75 -31 15 9 22 8 35 -5 88 -87 299 -208 446
-256 27 -8 41 -22 60 -58 14 -27 69 -92 123 -145 115 -116 120 -117 233 -57
231 121 430 195 567 210 50 6 112 19 136 30 24 10 59 19 78 19 87 0 253 79
339 161 113 109 161 232 175 447 7 108 14 152 29 181 65 129 98 275 107 473
11 266 -32 477 -143 701 -193 390 -545 661 -979 753 -72 15 -373 29 -415 19z
m467 -69 c442 -112 787 -415 951 -836 54 -137 74 -247 78 -425 4 -138 1 -186
-13 -253 -10 -46 -22 -84 -28 -84 -5 -1 -20 17 -32 38 -19 35 -21 45 -11 84
17 71 13 312 -6 418 -81 446 -412 821 -851 965 -190 62 -429 79 -623 44 -490
-90 -882 -450 -1005 -926 -20 -77 -31 -99 -60 -129 -20 -20 -39 -33 -43 -29
-4 4 1 46 11 94 104 504 484 906 977 1034 133 34 172 38 368 34 159 -2 199 -6
287 -29z m-61 -261 c65 -19 126 -64 147 -106 22 -47 57 -187 51 -203 -8 -21
-103 -8 -144 20 -31 21 -36 22 -46 9 -15 -20 -21 -19 -27 5 -8 30 -27 24 -27
-7 0 -16 -4 -34 -9 -41 -12 -19 -79 -5 -92 20 -7 13 -16 17 -30 13 -18 -6 -19
-1 -19 74 0 47 -4 81 -10 81 -5 0 -10 -4 -10 -10 0 -17 -22 -11 -46 11 -20 19
-27 20 -80 10 -32 -6 -61 -11 -66 -11 -33 0 44 80 107 110 58 28 161 50 210
45 22 -2 63 -11 91 -20z m-316 -185 c0 -5 -4 -10 -10 -10 -5 0 -10 5 -10 10 0
6 5 10 10 10 6 0 10 -4 10 -10z m71 -82 c-9 -25 -25 -28 -29 -5 -5 24 18 53
29 36 4 -7 4 -21 0 -31z m797 20 c5 -7 16 -30 23 -52 9 -25 30 -51 61 -75 26
-20 47 -41 48 -48 0 -7 -16 -24 -35 -39 -19 -14 -35 -35 -35 -45 0 -14 -6 -17
-32 -13 -28 4 -59 -9 -188 -82 -274 -154 -448 -232 -572 -259 -36 -7 -37 -35
-2 -35 66 0 222 57 312 113 124 79 221 120 344 147 91 21 116 35 188 105 32
32 40 31 74 -4 l27 -29 -48 -6 c-128 -18 -134 -28 -28 -45 72 -12 79 -16 135
-68 70 -66 131 -160 137 -212 2 -20 9 -46 15 -58 9 -18 7 -31 -7 -62 -18 -40
-18 -51 0 -166 7 -45 10 -49 -59 57 -59 89 -116 126 -116 75 0 -30 25 -64 60
-82 16 -8 32 -25 36 -37 3 -13 27 -52 53 -88 65 -91 83 -121 76 -128 -3 -4
-16 0 -28 7 -12 8 -41 13 -64 12 -35 -1 -45 3 -59 24 -12 18 -25 25 -48 25
-18 0 -63 16 -102 36 -66 34 -72 35 -143 29 -40 -3 -97 -16 -125 -27 -42 -17
-75 -21 -186 -23 -101 -2 -155 -8 -215 -23 -51 -14 -110 -22 -163 -22 -79 0
-85 2 -110 29 -15 15 -51 44 -81 64 -43 29 -59 47 -77 89 -36 83 -31 102 14
50 33 -38 62 -54 62 -35 0 4 -14 42 -32 85 -17 42 -29 80 -26 83 13 14 41 -12
69 -66 36 -67 64 -81 104 -55 30 20 32 33 6 41 -33 10 -71 46 -71 66 0 17 8
19 84 19 54 0 97 6 122 16 20 9 52 14 70 12 28 -3 34 0 39 19 5 20 12 23 55
23 42 0 59 7 114 44 43 30 84 48 123 56 106 23 344 -6 364 -43 5 -8 35 -24 66
-37 84 -31 86 -33 96 -71 14 -56 40 -73 76 -50 11 7 9 14 -8 37 -11 16 -30 62
-41 103 -37 134 -70 156 -180 121 -66 -20 -127 -26 -145 -12 -5 4 -10 18 -10
32 0 24 -3 25 -67 28 -64 3 -71 1 -149 -43 -158 -90 -313 -145 -475 -169 -130
-20 -154 -17 -175 21 l-18 33 29 15 c36 19 37 23 5 35 -19 7 -25 17 -25 39 0
21 -7 34 -22 42 l-22 12 22 15 c33 22 27 33 -15 30 -29 -2 -38 1 -41 15 -2 12
3 17 17 17 22 0 25 8 15 34 -6 14 -11 13 -41 -10 -19 -14 -36 -24 -37 -23 -2
2 -6 32 -10 67 -6 49 -4 62 7 62 8 0 19 -11 25 -25 15 -33 23 -31 50 11 38 61
29 74 -50 77 -43 2 -43 2 -50 47 -14 92 -12 98 28 106 30 5 48 0 105 -30 39
-20 81 -36 94 -36 14 0 29 -8 34 -19 11 -20 82 -61 106 -61 8 0 17 -12 20 -27
13 -65 21 -78 43 -76 24 3 29 -16 10 -35 -6 -6 -8 -15 -4 -19 12 -12 40 11 58
48 9 19 24 42 33 51 12 12 15 25 10 46 -3 17 -2 39 4 49 5 10 12 26 15 36 4
12 16 17 45 17 22 0 42 -4 45 -9 4 -5 0 -26 -6 -47 -10 -31 -18 -39 -38 -39
-16 0 -26 -6 -28 -19 -5 -25 23 -46 60 -46 21 0 33 -8 48 -32 11 -18 20 -39
20 -46 0 -33 -248 -164 -390 -205 -87 -25 -115 -47 -62 -47 73 0 224 61 424
172 146 80 181 114 235 228 41 86 52 142 32 166 -10 13 -10 17 2 25 20 13 55
11 67 -3z m-547 -119 c13 -25 6 -96 -11 -113 -10 -8 -11 -1 -6 33 5 31 2 50
-8 66 -14 22 -12 35 5 35 5 0 13 -10 20 -21z m424 -4 c0 -10 -5 -20 -11 -22
-7 -2 -11 6 -10 22 1 28 21 29 21 0z m-85 -4 c0 -5 -16 -21 -35 -35 -41 -32
-47 -16 -7 19 29 26 42 31 42 16z m30 -75 c0 -2 -7 -7 -16 -10 -8 -3 -12 -2
-9 4 6 10 25 14 25 6z m-92 -67 c-2 -6 -8 -10 -13 -10 -5 0 -11 4 -13 10 -2 6
4 11 13 11 9 0 15 -5 13 -11z m-1478 -177 c0 -5 -12 -14 -27 -21 l-28 -12 25
21 c29 22 30 23 30 12z m70 -2 c10 -5 40 -45 66 -87 41 -68 48 -87 52 -144 l4
-65 -51 -39 c-28 -22 -51 -43 -51 -48 0 -10 31 -2 74 19 39 19 45 8 44 -80 -2
-111 35 -206 86 -225 37 -15 39 -49 6 -102 -17 -25 -30 -54 -30 -63 0 -10 14
-39 31 -64 21 -30 27 -48 19 -50 -7 -3 -27 -18 -46 -34 -40 -36 -58 -92 -49
-157 l6 -46 -84 -89 c-60 -63 -89 -87 -103 -85 -19 4 -125 155 -206 294 -185
317 -258 417 -357 490 -22 17 -41 35 -41 40 0 6 30 26 67 44 143 70 284 177
306 232 7 19 23 0 146 -181 106 -156 208 -327 247 -416 13 -30 31 -57 39 -61
42 -16 26 20 -83 187 -93 142 -99 151 -207 333 -48 81 -91 150 -96 153 -22 13
-4 31 61 60 79 37 104 68 114 145 7 53 8 54 36 39z m-96 -91 c-23 -26 -103
-73 -110 -66 -3 3 22 26 57 51 64 46 88 53 53 15z m839 -9 c4 -4 -14 -10 -40
-13 -26 -3 -86 -18 -133 -33 -74 -24 -230 -43 -230 -29 0 7 91 51 134 65 83
27 244 33 269 10z m-503 -113 c-14 -7 -32 -19 -42 -27 -44 -40 -58 -44 -58
-19 0 16 75 59 100 58 l25 0 -25 -12z m140 -72 c24 -25 24 -27 11 -108 -27
-173 -27 -171 8 -196 36 -26 46 -23 55 21 6 30 8 31 23 16 24 -25 28 -108 8
-170 -23 -70 -13 -240 17 -277 13 -17 15 -28 8 -35 -13 -13 -90 40 -107 74
-20 40 -15 115 13 193 37 101 39 117 21 117 -9 0 -21 -15 -28 -35 -7 -19 -19
-35 -26 -35 -24 0 -63 48 -63 77 0 19 -12 39 -44 68 -36 33 -45 48 -51 90 -8
57 -36 109 -71 132 -13 8 -24 22 -24 30 0 28 69 8 110 -32 38 -37 50 -43 50
-22 0 6 14 18 30 25 29 13 41 32 20 32 -5 0 -10 14 -10 30 0 37 18 39 50 5z
m-804 -34 c-3 -4 -33 -28 -66 -52 -33 -24 -95 -70 -138 -101 -42 -32 -84 -58
-92 -58 -18 0 3 18 105 87 39 26 77 53 85 60 69 56 120 87 106 64z m1112 -213
c-6 -18 -25 -20 -31 -3 -5 10 0 15 14 15 12 0 19 -5 17 -12z m-127 -141 c-8
-8 -11 4 -11 39 0 66 14 80 18 19 2 -26 -2 -53 -7 -58z m214 34 c-4 -17 -11
-34 -17 -37 -10 -6 -2 49 9 69 10 17 15 -2 8 -32z m-1313 -50 c15 -13 25 -28
21 -33 -6 -10 -83 60 -83 75 0 10 19 -3 62 -42z m1178 22 c0 -16 -5 -35 -10
-43 -7 -11 -10 -4 -10 28 0 23 5 42 10 42 6 0 10 -12 10 -27z m731 -26 c-29
-29 -36 -16 -9 18 14 18 23 24 26 16 2 -7 -5 -22 -17 -34z m179 11 c0 -18 -85
-124 -115 -144 -31 -20 -39 -15 -26 19 21 54 -32 42 -67 -16 -29 -46 -64 -76
-100 -87 -25 -7 -32 -6 -32 6 0 8 8 21 18 29 220 190 241 205 283 205 25 0 39
-5 39 -12z m-2054 -168 c61 -80 128 -172 149 -205 101 -160 148 -225 205 -288
64 -70 78 -105 17 -46 -71 71 -508 680 -507 707 1 8 -6 17 136 -168z m1274
121 c0 -18 -26 -48 -34 -40 -2 2 -2 16 1 32 6 30 33 37 33 8z m1029 3 c22 -8
42 -22 45 -29 8 -22 -6 -195 -16 -189 -18 11 -46 -28 -59 -79 -14 -60 -36
-107 -57 -123 -9 -6 -57 -10 -121 -9 -81 2 -120 8 -166 24 -33 12 -80 26 -105
31 -25 5 -52 10 -60 12 -8 2 -16 -1 -18 -7 -4 -12 145 -61 230 -75 35 -5 102
-10 149 -10 77 0 92 3 148 32 97 50 105 67 111 230 5 138 13 167 44 155 8 -3
24 -33 36 -65 12 -33 35 -73 51 -88 16 -15 29 -36 29 -46 0 -10 -16 -50 -35
-88 -41 -82 -46 -125 -13 -133 22 -6 22 -6 2 -28 -10 -12 -36 -29 -56 -38 -45
-19 -131 -118 -155 -178 -12 -29 -26 -46 -41 -50 -13 -3 -83 2 -155 11 -73 9
-152 16 -177 15 l-45 -1 38 -9 c46 -11 117 -46 117 -58 0 -14 -30 -22 -100
-27 -186 -11 -220 -12 -215 -4 21 34 -161 12 -216 -26 -19 -13 -42 -24 -51
-24 -24 0 -103 65 -129 106 -45 70 -49 81 -56 150 -6 51 -12 69 -23 69 -16 0
-16 -1 -5 -147 5 -66 10 -88 21 -88 8 0 14 -7 14 -15 0 -22 61 -74 87 -75 12
0 29 -8 39 -17 10 -10 29 -16 50 -15 28 2 32 0 27 -14 -5 -14 -1 -16 29 -10
19 3 46 2 59 -3 21 -7 17 -10 -35 -21 -86 -18 -98 -26 -129 -81 -16 -27 -32
-49 -36 -49 -4 0 -3 24 2 53 9 49 8 57 -17 100 -46 78 -56 80 -55 7 1 -53 5
-63 21 -68 13 -3 17 -10 12 -21 -4 -9 -16 -43 -27 -76 -30 -93 -35 -105 -52
-105 -25 0 -51 55 -84 174 -47 170 -57 287 -37 433 9 65 16 147 16 181 0 46 4
62 14 62 20 0 62 -46 96 -106 20 -36 38 -56 55 -60 37 -9 42 3 12 27 -15 11
-27 30 -27 43 0 13 -14 40 -30 61 -35 44 -32 59 6 24 28 -26 162 -201 179
-234 19 -37 42 -30 50 14 4 23 10 43 14 45 12 8 73 -74 67 -91 -10 -25 20 -49
105 -83 133 -54 152 -14 27 60 -83 49 -121 81 -145 120 -8 14 -39 38 -69 54
-29 15 -70 48 -90 73 -55 67 -74 82 -111 89 -18 3 -33 10 -33 15 0 23 35 18
136 -20 59 -23 116 -41 125 -41 34 0 29 19 -8 30 -44 14 -79 37 -70 47 14 13
75 3 163 -27 49 -16 90 -30 93 -30 2 0 0 11 -3 25 -6 23 -4 25 33 25 21 0 57
-7 81 -15 31 -11 52 -12 83 -5 23 5 71 10 107 10 65 0 93 -10 154 -54 21 -15
29 -16 41 -6 13 11 13 16 -3 42 -9 16 -28 31 -42 35 -14 3 -34 11 -46 18 -12
8 -66 17 -120 21 -106 7 -144 18 -109 29 67 23 152 74 239 145 107 87 124 93
195 64z m-898 -59 c-21 -47 -41 -53 -41 -11 0 26 51 87 57 69 3 -7 -5 -33 -16
-58z m209 41 c0 -16 -18 -31 -27 -22 -8 8 5 36 17 36 5 0 10 -6 10 -14z m978
-22 c-10 -10 -28 6 -28 24 0 15 1 15 17 -1 9 -9 14 -19 11 -23z m-1102 -26
c-3 -17 -8 -34 -11 -36 -11 -11 -16 9 -10 37 9 42 29 41 21 -1z m-1384 -70
c58 -79 84 -119 173 -273 32 -55 65 -108 73 -118 9 -9 13 -20 9 -23 -9 -9 -81
93 -196 277 -56 90 -109 174 -118 187 -8 12 -11 22 -5 22 6 0 34 -33 64 -72z
m1038 47 c0 -8 -4 -17 -10 -20 -6 -4 -10 5 -10 20 0 15 4 24 10 20 6 -3 10
-12 10 -20z m82 -43 c-8 -36 -25 -44 -30 -13 -4 25 17 66 28 55 5 -5 6 -24 2
-42z m87 16 c-2 -44 -24 -119 -34 -116 -12 4 -11 40 4 96 12 45 32 57 30 20z
m1296 -113 c0 -38 -5 -69 -12 -76 -10 -10 -13 5 -13 76 0 71 3 87 13 77 7 -8
12 -39 12 -77z m-1506 2 c19 -24 41 -86 32 -91 -5 -3 -20 4 -35 15 -19 15 -26
30 -26 55 0 36 10 43 29 21z m1238 -64 c-17 -18 -22 -8 -11 22 5 12 10 13 17
6 8 -8 6 -16 -6 -28z m-1447 -18 c10 -12 9 -16 -3 -21 -19 -7 -60 14 -52 27 9
14 41 11 55 -6z m-98 -40 c37 -10 90 -15 141 -13 l81 3 30 -43 c25 -35 31 -53
30 -92 0 -27 -6 -55 -12 -63 -18 -21 -117 -26 -187 -10 -77 18 -93 33 -35 33
41 0 43 1 28 16 -9 9 -40 26 -69 38 -66 26 -80 52 -23 41 97 -20 102 -4 11 35
-76 32 -100 48 -91 61 7 13 27 11 96 -6z m1768 -265 c0 -13 -99 -110 -112
-110 -6 0 -1 12 13 27 79 91 99 107 99 83z m-1613 -32 c-2 -9 -19 -12 -49 -10
-47 4 -68 -9 -50 -31 15 -18 21 -158 6 -146 -19 16 -49 140 -45 187 1 8 22 12
72 12 52 0 70 -3 66 -12z m83 2 c0 -5 -4 -10 -9 -10 -6 0 -13 5 -16 10 -3 6 1
10 9 10 9 0 16 -4 16 -10z m-363 -105 c29 -19 74 -45 100 -59 34 -17 54 -35
66 -61 10 -21 16 -39 13 -42 -9 -10 -137 62 -221 125 -50 37 -102 74 -115 83
-25 16 -25 17 -6 38 l19 21 46 -35 c25 -20 69 -51 98 -70z m971 -167 c-3 -7
-15 -15 -28 -16 -21 -3 -22 -2 -11 12 16 19 44 21 39 4z m-572 -85 c-11 -11
-19 6 -11 24 8 17 8 17 12 0 3 -10 2 -21 -1 -24z m414 -68 c-31 -32 -70 -47
-70 -26 0 11 71 60 89 60 9 1 1 -13 -19 -34z"/>
</g>
</svg>
